<svg xmlns="http://www.w3.org/2000/svg" viewBox="0 0 24 24" width="48" height="48">
  <path fill="#e53935" d="M14,2H6C4.9,2,4,2.9,4,4v16c0,1.1,0.9,2,2,2h12c1.1,0,2-0.9,2-2V8L14,2z M18,20H6V4h7v5h5V20z"/>
  <path fill="#e53935" d="M11.5,13h-1v-1h1V13z M13.5,13h-1v-1h1V13z M15.5,13h-1v-1h1V13z"/>
  <path fill="#e53935" d="M11.5,15h-1v-1h1V15z M13.5,15h-1v-1h1V15z M15.5,15h-1v-1h1V15z"/>
  <path fill="#e53935" d="M11.5,17h-1v-1h1V17z M13.5,17h-1v-1h1V17z M15.5,17h-1v-1h1V17z"/>
  <path fill="#e53935" d="M9,9.5h7v1H9V9.5z"/>
</svg> 